<mxfile host="app.diagrams.net" modified="2022-01-17T12:56:56.279Z" agent="5.0 (Macintosh; Intel Mac OS X 10_15_7) AppleWebKit/537.36 (KHTML, like Gecko) Chrome/97.0.4692.71 Safari/537.36" etag="Hn-S_e3MTy8xKjdGMO2V" version="16.2.7" type="github">
  <diagram id="YJDorFOKSxrE0az7E-os" name="Page-1">
    <mxGraphModel dx="1990" dy="1834" grid="1" gridSize="10" guides="1" tooltips="1" connect="1" arrows="1" fold="1" page="1" pageScale="1" pageWidth="827" pageHeight="1169" math="0" shadow="0">
      <root>
        <mxCell id="0" />
        <mxCell id="1" parent="0" />
        <mxCell id="yTfPNT7VYN94s2qLSQWw-20" value="" style="edgeStyle=orthogonalEdgeStyle;rounded=0;orthogonalLoop=1;jettySize=auto;html=1;entryX=0;entryY=0.5;entryDx=0;entryDy=0;" parent="1" source="2qrkcXuvCPRG3PDcTXC0-2" target="yTfPNT7VYN94s2qLSQWw-19" edge="1">
          <mxGeometry relative="1" as="geometry" />
        </mxCell>
        <mxCell id="V8OOBGYu3xMJqI5clzTw-6" value="(1,n)" style="edgeLabel;html=1;align=center;verticalAlign=middle;resizable=0;points=[];" parent="yTfPNT7VYN94s2qLSQWw-20" vertex="1" connectable="0">
          <mxGeometry x="-0.8683" y="2" relative="1" as="geometry">
            <mxPoint y="1" as="offset" />
          </mxGeometry>
        </mxCell>
        <mxCell id="yTfPNT7VYN94s2qLSQWw-159" value="" style="edgeStyle=orthogonalEdgeStyle;rounded=0;orthogonalLoop=1;jettySize=auto;html=1;entryX=0.5;entryY=0;entryDx=0;entryDy=0;" parent="1" source="2qrkcXuvCPRG3PDcTXC0-2" target="yTfPNT7VYN94s2qLSQWw-155" edge="1">
          <mxGeometry relative="1" as="geometry">
            <mxPoint x="-500" y="-384" as="targetPoint" />
          </mxGeometry>
        </mxCell>
        <mxCell id="V8OOBGYu3xMJqI5clzTw-5" value="(1,1)" style="edgeLabel;html=1;align=center;verticalAlign=middle;resizable=0;points=[];" parent="yTfPNT7VYN94s2qLSQWw-159" vertex="1" connectable="0">
          <mxGeometry x="-0.7269" y="3" relative="1" as="geometry">
            <mxPoint as="offset" />
          </mxGeometry>
        </mxCell>
        <mxCell id="2qrkcXuvCPRG3PDcTXC0-2" value="aluno" style="whiteSpace=wrap;html=1;align=center;" parent="1" vertex="1">
          <mxGeometry x="-480" y="-502.5" width="100" height="40" as="geometry" />
        </mxCell>
        <mxCell id="2qrkcXuvCPRG3PDcTXC0-3" value="" style="edgeStyle=orthogonalEdgeStyle;rounded=0;orthogonalLoop=1;jettySize=auto;html=1;entryX=0;entryY=0.5;entryDx=0;entryDy=0;endArrow=none;endFill=0;" parent="1" source="2qrkcXuvCPRG3PDcTXC0-4" target="2qrkcXuvCPRG3PDcTXC0-2" edge="1">
          <mxGeometry relative="1" as="geometry">
            <mxPoint x="-590" y="-609" as="targetPoint" />
            <Array as="points">
              <mxPoint x="-600" y="-609" />
              <mxPoint x="-600" y="-482" />
            </Array>
          </mxGeometry>
        </mxCell>
        <mxCell id="2qrkcXuvCPRG3PDcTXC0-4" value="id_aluno PK" style="ellipse;whiteSpace=wrap;html=1;align=center;" parent="1" vertex="1">
          <mxGeometry x="-780" y="-629" width="100" height="40" as="geometry" />
        </mxCell>
        <mxCell id="2qrkcXuvCPRG3PDcTXC0-5" value="" style="edgeStyle=orthogonalEdgeStyle;rounded=0;orthogonalLoop=1;jettySize=auto;html=1;entryX=0;entryY=0.5;entryDx=0;entryDy=0;endArrow=none;endFill=0;" parent="1" source="2qrkcXuvCPRG3PDcTXC0-6" target="2qrkcXuvCPRG3PDcTXC0-2" edge="1">
          <mxGeometry relative="1" as="geometry">
            <mxPoint x="-590" y="-559" as="targetPoint" />
            <Array as="points">
              <mxPoint x="-600" y="-559" />
              <mxPoint x="-600" y="-482" />
            </Array>
          </mxGeometry>
        </mxCell>
        <mxCell id="2qrkcXuvCPRG3PDcTXC0-6" value="nome" style="ellipse;whiteSpace=wrap;html=1;align=center;" parent="1" vertex="1">
          <mxGeometry x="-780" y="-580" width="100" height="40" as="geometry" />
        </mxCell>
        <mxCell id="2qrkcXuvCPRG3PDcTXC0-7" value="" style="edgeStyle=orthogonalEdgeStyle;rounded=0;orthogonalLoop=1;jettySize=auto;html=1;entryX=0;entryY=0.5;entryDx=0;entryDy=0;endArrow=none;endFill=0;" parent="1" source="2qrkcXuvCPRG3PDcTXC0-8" target="2qrkcXuvCPRG3PDcTXC0-2" edge="1">
          <mxGeometry relative="1" as="geometry">
            <mxPoint x="-590" y="-509" as="targetPoint" />
            <Array as="points">
              <mxPoint x="-600" y="-460" />
              <mxPoint x="-600" y="-482" />
            </Array>
          </mxGeometry>
        </mxCell>
        <mxCell id="2qrkcXuvCPRG3PDcTXC0-8" value="endereÃ§o" style="ellipse;whiteSpace=wrap;html=1;align=center;" parent="1" vertex="1">
          <mxGeometry x="-780" y="-482" width="100" height="40" as="geometry" />
        </mxCell>
        <mxCell id="2qrkcXuvCPRG3PDcTXC0-9" value="" style="edgeStyle=orthogonalEdgeStyle;rounded=0;orthogonalLoop=1;jettySize=auto;html=1;entryX=0;entryY=0.5;entryDx=0;entryDy=0;endArrow=none;endFill=0;exitX=1;exitY=0.5;exitDx=0;exitDy=0;" parent="1" source="2qrkcXuvCPRG3PDcTXC0-10" target="2qrkcXuvCPRG3PDcTXC0-2" edge="1">
          <mxGeometry relative="1" as="geometry">
            <mxPoint x="-590" y="-459" as="targetPoint" />
            <Array as="points">
              <mxPoint x="-600" y="-410" />
              <mxPoint x="-600" y="-482" />
            </Array>
          </mxGeometry>
        </mxCell>
        <mxCell id="2qrkcXuvCPRG3PDcTXC0-10" value="data_nascimento" style="ellipse;whiteSpace=wrap;html=1;align=center;" parent="1" vertex="1">
          <mxGeometry x="-780" y="-433" width="100" height="40" as="geometry" />
        </mxCell>
        <mxCell id="2qrkcXuvCPRG3PDcTXC0-11" value="" style="edgeStyle=orthogonalEdgeStyle;rounded=0;orthogonalLoop=1;jettySize=auto;html=1;entryX=0;entryY=0.5;entryDx=0;entryDy=0;endArrow=none;endFill=0;" parent="1" source="2qrkcXuvCPRG3PDcTXC0-12" target="2qrkcXuvCPRG3PDcTXC0-2" edge="1">
          <mxGeometry relative="1" as="geometry">
            <mxPoint x="-590" y="-409" as="targetPoint" />
            <Array as="points">
              <mxPoint x="-720" y="-360" />
              <mxPoint x="-600" y="-360" />
              <mxPoint x="-600" y="-482" />
            </Array>
          </mxGeometry>
        </mxCell>
        <mxCell id="2qrkcXuvCPRG3PDcTXC0-12" value="e-mail" style="ellipse;whiteSpace=wrap;html=1;align=center;" parent="1" vertex="1">
          <mxGeometry x="-780" y="-384" width="100" height="40" as="geometry" />
        </mxCell>
        <mxCell id="2qrkcXuvCPRG3PDcTXC0-22" value="" style="edgeStyle=orthogonalEdgeStyle;rounded=0;orthogonalLoop=1;jettySize=auto;html=1;entryX=0;entryY=0.5;entryDx=0;entryDy=0;endArrow=none;endFill=0;exitX=1;exitY=0.5;exitDx=0;exitDy=0;" parent="1" source="2qrkcXuvCPRG3PDcTXC0-23" target="2qrkcXuvCPRG3PDcTXC0-2" edge="1">
          <mxGeometry relative="1" as="geometry">
            <mxPoint x="-590" y="-359" as="targetPoint" />
            <Array as="points">
              <mxPoint x="-600" y="-314" />
              <mxPoint x="-600" y="-482" />
            </Array>
          </mxGeometry>
        </mxCell>
        <mxCell id="2qrkcXuvCPRG3PDcTXC0-23" value="curso" style="ellipse;whiteSpace=wrap;html=1;align=center;" parent="1" vertex="1">
          <mxGeometry x="-780" y="-334.5" width="100" height="40" as="geometry" />
        </mxCell>
        <mxCell id="2qrkcXuvCPRG3PDcTXC0-73" value="turma" style="whiteSpace=wrap;html=1;align=center;" parent="1" vertex="1">
          <mxGeometry x="-4" y="-581.5" width="100" height="40" as="geometry" />
        </mxCell>
        <mxCell id="2qrkcXuvCPRG3PDcTXC0-74" value="" style="edgeStyle=orthogonalEdgeStyle;rounded=0;orthogonalLoop=1;jettySize=auto;html=1;entryX=1;entryY=0.5;entryDx=0;entryDy=0;endArrow=none;endFill=0;" parent="1" source="2qrkcXuvCPRG3PDcTXC0-75" target="2qrkcXuvCPRG3PDcTXC0-73" edge="1">
          <mxGeometry relative="1" as="geometry">
            <mxPoint x="106" y="-551.5" as="targetPoint" />
          </mxGeometry>
        </mxCell>
        <mxCell id="2qrkcXuvCPRG3PDcTXC0-75" value="facilitadores FK" style="ellipse;whiteSpace=wrap;html=1;align=center;flipV=1;" parent="1" vertex="1">
          <mxGeometry x="182" y="-604.5" width="100" height="40" as="geometry" />
        </mxCell>
        <mxCell id="2qrkcXuvCPRG3PDcTXC0-76" value="" style="edgeStyle=orthogonalEdgeStyle;rounded=0;orthogonalLoop=1;jettySize=auto;html=1;entryX=1;entryY=0.5;entryDx=0;entryDy=0;endArrow=none;endFill=0;" parent="1" source="2qrkcXuvCPRG3PDcTXC0-77" target="2qrkcXuvCPRG3PDcTXC0-73" edge="1">
          <mxGeometry relative="1" as="geometry" />
        </mxCell>
        <mxCell id="2qrkcXuvCPRG3PDcTXC0-77" value="nome&amp;nbsp;" style="ellipse;whiteSpace=wrap;html=1;align=center;flipV=1;" parent="1" vertex="1">
          <mxGeometry x="182" y="-655.5" width="100" height="40" as="geometry" />
        </mxCell>
        <mxCell id="2qrkcXuvCPRG3PDcTXC0-78" value="" style="edgeStyle=orthogonalEdgeStyle;rounded=0;orthogonalLoop=1;jettySize=auto;html=1;entryX=1;entryY=0.5;entryDx=0;entryDy=0;endArrow=none;endFill=0;" parent="1" source="2qrkcXuvCPRG3PDcTXC0-79" target="2qrkcXuvCPRG3PDcTXC0-73" edge="1">
          <mxGeometry relative="1" as="geometry" />
        </mxCell>
        <mxCell id="2qrkcXuvCPRG3PDcTXC0-79" value="id_turma PK" style="ellipse;whiteSpace=wrap;html=1;align=center;flipV=1;" parent="1" vertex="1">
          <mxGeometry x="182" y="-706.5" width="100" height="40" as="geometry" />
        </mxCell>
        <mxCell id="2qrkcXuvCPRG3PDcTXC0-80" value="" style="edgeStyle=orthogonalEdgeStyle;rounded=0;orthogonalLoop=1;jettySize=auto;html=1;entryX=1;entryY=0.5;entryDx=0;entryDy=0;endArrow=none;endFill=0;" parent="1" source="2qrkcXuvCPRG3PDcTXC0-81" target="2qrkcXuvCPRG3PDcTXC0-73" edge="1">
          <mxGeometry relative="1" as="geometry">
            <mxPoint x="106" y="-521.5" as="targetPoint" />
          </mxGeometry>
        </mxCell>
        <mxCell id="2qrkcXuvCPRG3PDcTXC0-81" value="id_alunos FK" style="ellipse;whiteSpace=wrap;html=1;align=center;flipV=1;" parent="1" vertex="1">
          <mxGeometry x="182" y="-553.5" width="100" height="40" as="geometry" />
        </mxCell>
        <mxCell id="2qrkcXuvCPRG3PDcTXC0-82" value="" style="edgeStyle=orthogonalEdgeStyle;rounded=0;orthogonalLoop=1;jettySize=auto;html=1;entryX=1;entryY=0.5;entryDx=0;entryDy=0;endArrow=none;endFill=0;" parent="1" source="2qrkcXuvCPRG3PDcTXC0-83" target="2qrkcXuvCPRG3PDcTXC0-73" edge="1">
          <mxGeometry relative="1" as="geometry">
            <mxPoint x="106" y="-486.5" as="targetPoint" />
          </mxGeometry>
        </mxCell>
        <mxCell id="2qrkcXuvCPRG3PDcTXC0-83" value="data_inicio" style="ellipse;whiteSpace=wrap;html=1;align=center;flipV=1;" parent="1" vertex="1">
          <mxGeometry x="182" y="-502.5" width="100" height="40" as="geometry" />
        </mxCell>
        <mxCell id="2qrkcXuvCPRG3PDcTXC0-86" value="" style="edgeStyle=orthogonalEdgeStyle;rounded=0;orthogonalLoop=1;jettySize=auto;html=1;entryX=1;entryY=0.5;entryDx=0;entryDy=0;endArrow=none;endFill=0;" parent="1" source="2qrkcXuvCPRG3PDcTXC0-87" target="2qrkcXuvCPRG3PDcTXC0-73" edge="1">
          <mxGeometry relative="1" as="geometry">
            <mxPoint x="102" y="-416.5" as="targetPoint" />
          </mxGeometry>
        </mxCell>
        <mxCell id="2qrkcXuvCPRG3PDcTXC0-87" value="curso" style="ellipse;whiteSpace=wrap;html=1;align=center;flipV=1;" parent="1" vertex="1">
          <mxGeometry x="182" y="-451.5" width="100" height="40" as="geometry" />
        </mxCell>
        <mxCell id="yTfPNT7VYN94s2qLSQWw-21" value="" style="edgeStyle=orthogonalEdgeStyle;rounded=0;orthogonalLoop=1;jettySize=auto;html=1;" parent="1" source="yTfPNT7VYN94s2qLSQWw-19" target="2qrkcXuvCPRG3PDcTXC0-73" edge="1">
          <mxGeometry relative="1" as="geometry" />
        </mxCell>
        <mxCell id="yTfPNT7VYN94s2qLSQWw-19" value="pertence" style="shape=rhombus;perimeter=rhombusPerimeter;whiteSpace=wrap;html=1;align=center;" parent="1" vertex="1">
          <mxGeometry x="-230" y="-591.5" width="120" height="60" as="geometry" />
        </mxCell>
        <mxCell id="yTfPNT7VYN94s2qLSQWw-173" value="" style="edgeStyle=orthogonalEdgeStyle;rounded=0;orthogonalLoop=1;jettySize=auto;html=1;entryX=1;entryY=0.5;entryDx=0;entryDy=0;" parent="1" source="yTfPNT7VYN94s2qLSQWw-23" target="yTfPNT7VYN94s2qLSQWw-174" edge="1">
          <mxGeometry relative="1" as="geometry">
            <mxPoint x="240" y="-297" as="targetPoint" />
          </mxGeometry>
        </mxCell>
        <mxCell id="yTfPNT7VYN94s2qLSQWw-23" value="facilitadores" style="whiteSpace=wrap;html=1;align=center;" parent="1" vertex="1">
          <mxGeometry x="320" y="-308" width="100" height="40" as="geometry" />
        </mxCell>
        <mxCell id="V8OOBGYu3xMJqI5clzTw-8" value="" style="edgeStyle=orthogonalEdgeStyle;rounded=0;orthogonalLoop=1;jettySize=auto;html=1;endArrow=none;endFill=0;" parent="1" source="yTfPNT7VYN94s2qLSQWw-25" target="yTfPNT7VYN94s2qLSQWw-23" edge="1">
          <mxGeometry relative="1" as="geometry" />
        </mxCell>
        <mxCell id="yTfPNT7VYN94s2qLSQWw-25" value="id_facilitador PK" style="ellipse;whiteSpace=wrap;html=1;align=center;" parent="1" vertex="1">
          <mxGeometry x="520" y="-334.5" width="100" height="40" as="geometry" />
        </mxCell>
        <mxCell id="V8OOBGYu3xMJqI5clzTw-9" value="" style="edgeStyle=orthogonalEdgeStyle;rounded=0;orthogonalLoop=1;jettySize=auto;html=1;endArrow=none;endFill=0;" parent="1" source="yTfPNT7VYN94s2qLSQWw-35" target="yTfPNT7VYN94s2qLSQWw-23" edge="1">
          <mxGeometry relative="1" as="geometry" />
        </mxCell>
        <mxCell id="yTfPNT7VYN94s2qLSQWw-35" value="id_turma FK" style="ellipse;whiteSpace=wrap;html=1;align=center;" parent="1" vertex="1">
          <mxGeometry x="520" y="-281.5" width="100" height="40" as="geometry" />
        </mxCell>
        <mxCell id="yTfPNT7VYN94s2qLSQWw-38" value="id_colaborador PK" style="ellipse;whiteSpace=wrap;html=1;align=center;" parent="1" vertex="1">
          <mxGeometry x="-260" y="-294.5" width="100" height="40" as="geometry" />
        </mxCell>
        <mxCell id="yTfPNT7VYN94s2qLSQWw-40" value="nome" style="ellipse;whiteSpace=wrap;html=1;align=center;" parent="1" vertex="1">
          <mxGeometry x="-260" y="-244.5" width="100" height="40" as="geometry" />
        </mxCell>
        <mxCell id="yTfPNT7VYN94s2qLSQWw-42" value="endereÃ§o" style="ellipse;whiteSpace=wrap;html=1;align=center;" parent="1" vertex="1">
          <mxGeometry x="-260" y="-194.5" width="100" height="40" as="geometry" />
        </mxCell>
        <mxCell id="yTfPNT7VYN94s2qLSQWw-44" value="data_nascimento" style="ellipse;whiteSpace=wrap;html=1;align=center;" parent="1" vertex="1">
          <mxGeometry x="-260" y="-144.5" width="100" height="40" as="geometry" />
        </mxCell>
        <mxCell id="yTfPNT7VYN94s2qLSQWw-177" value="" style="edgeStyle=orthogonalEdgeStyle;rounded=0;orthogonalLoop=1;jettySize=auto;html=1;entryX=0;entryY=0.5;entryDx=0;entryDy=0;endArrow=none;endFill=0;" parent="1" source="yTfPNT7VYN94s2qLSQWw-46" target="yTfPNT7VYN94s2qLSQWw-49" edge="1">
          <mxGeometry relative="1" as="geometry">
            <mxPoint x="-140" y="-78" as="targetPoint" />
          </mxGeometry>
        </mxCell>
        <mxCell id="yTfPNT7VYN94s2qLSQWw-46" value="e-mail" style="ellipse;whiteSpace=wrap;html=1;align=center;" parent="1" vertex="1">
          <mxGeometry x="-260" y="-94.5" width="100" height="40" as="geometry" />
        </mxCell>
        <mxCell id="yTfPNT7VYN94s2qLSQWw-48" value="dados bancÃ¡rios" style="ellipse;whiteSpace=wrap;html=1;align=center;" parent="1" vertex="1">
          <mxGeometry x="-260" y="-44.5" width="100" height="40" as="geometry" />
        </mxCell>
        <mxCell id="yTfPNT7VYN94s2qLSQWw-49" value="DP" style="whiteSpace=wrap;html=1;align=center;" parent="1" vertex="1">
          <mxGeometry x="6" y="-147" width="100" height="40" as="geometry" />
        </mxCell>
        <mxCell id="yTfPNT7VYN94s2qLSQWw-50" value="" style="edgeStyle=orthogonalEdgeStyle;rounded=0;orthogonalLoop=1;jettySize=auto;html=1;entryX=0;entryY=0.5;entryDx=0;entryDy=0;exitX=1;exitY=0.5;exitDx=0;exitDy=0;endArrow=none;endFill=0;" parent="1" source="yTfPNT7VYN94s2qLSQWw-42" target="yTfPNT7VYN94s2qLSQWw-49" edge="1">
          <mxGeometry relative="1" as="geometry">
            <mxPoint x="-180" y="-155" as="targetPoint" />
            <mxPoint x="-94" y="-178" as="sourcePoint" />
          </mxGeometry>
        </mxCell>
        <mxCell id="yTfPNT7VYN94s2qLSQWw-51" value="" style="edgeStyle=orthogonalEdgeStyle;rounded=0;orthogonalLoop=1;jettySize=auto;html=1;entryX=0;entryY=0.5;entryDx=0;entryDy=0;exitX=1;exitY=0.5;exitDx=0;exitDy=0;endArrow=none;endFill=0;" parent="1" source="yTfPNT7VYN94s2qLSQWw-40" target="yTfPNT7VYN94s2qLSQWw-49" edge="1">
          <mxGeometry relative="1" as="geometry">
            <mxPoint x="-94" y="-229" as="sourcePoint" />
            <mxPoint x="-180" y="-155" as="targetPoint" />
          </mxGeometry>
        </mxCell>
        <mxCell id="yTfPNT7VYN94s2qLSQWw-52" value="" style="edgeStyle=orthogonalEdgeStyle;rounded=0;orthogonalLoop=1;jettySize=auto;html=1;entryX=0;entryY=0.5;entryDx=0;entryDy=0;exitX=1;exitY=0.5;exitDx=0;exitDy=0;endArrow=none;endFill=0;" parent="1" source="yTfPNT7VYN94s2qLSQWw-38" target="yTfPNT7VYN94s2qLSQWw-49" edge="1">
          <mxGeometry relative="1" as="geometry">
            <mxPoint x="-94" y="-280" as="sourcePoint" />
            <mxPoint x="-180" y="-155" as="targetPoint" />
          </mxGeometry>
        </mxCell>
        <mxCell id="yTfPNT7VYN94s2qLSQWw-53" value="" style="edgeStyle=orthogonalEdgeStyle;rounded=0;orthogonalLoop=1;jettySize=auto;html=1;entryX=0;entryY=0.5;entryDx=0;entryDy=0;exitX=1;exitY=0.5;exitDx=0;exitDy=0;endArrow=none;endFill=0;" parent="1" source="yTfPNT7VYN94s2qLSQWw-44" target="yTfPNT7VYN94s2qLSQWw-49" edge="1">
          <mxGeometry relative="1" as="geometry">
            <mxPoint x="-180" y="-155" as="targetPoint" />
            <mxPoint x="-94" y="-127" as="sourcePoint" />
          </mxGeometry>
        </mxCell>
        <mxCell id="yTfPNT7VYN94s2qLSQWw-55" value="" style="edgeStyle=orthogonalEdgeStyle;rounded=0;orthogonalLoop=1;jettySize=auto;html=1;entryX=0;entryY=0.5;entryDx=0;entryDy=0;exitX=1;exitY=0.5;exitDx=0;exitDy=0;endArrow=none;endFill=0;" parent="1" source="yTfPNT7VYN94s2qLSQWw-48" target="yTfPNT7VYN94s2qLSQWw-49" edge="1">
          <mxGeometry relative="1" as="geometry">
            <mxPoint x="-180" y="-155" as="targetPoint" />
            <mxPoint x="-94" y="-25" as="sourcePoint" />
          </mxGeometry>
        </mxCell>
        <mxCell id="yTfPNT7VYN94s2qLSQWw-57" value="" style="edgeStyle=orthogonalEdgeStyle;rounded=0;orthogonalLoop=1;jettySize=auto;html=1;entryX=0;entryY=0.5;entryDx=0;entryDy=0;endArrow=none;endFill=0;" parent="1" source="yTfPNT7VYN94s2qLSQWw-56" target="yTfPNT7VYN94s2qLSQWw-49" edge="1">
          <mxGeometry relative="1" as="geometry">
            <mxPoint x="-130" y="50" as="targetPoint" />
          </mxGeometry>
        </mxCell>
        <mxCell id="yTfPNT7VYN94s2qLSQWw-56" value="CPF" style="ellipse;whiteSpace=wrap;html=1;align=center;" parent="1" vertex="1">
          <mxGeometry x="-260" y="15.5" width="100" height="40" as="geometry" />
        </mxCell>
        <mxCell id="yTfPNT7VYN94s2qLSQWw-58" value="contas a receber" style="whiteSpace=wrap;html=1;align=center;" parent="1" vertex="1">
          <mxGeometry x="-480" y="-147" width="100" height="40" as="geometry" />
        </mxCell>
        <mxCell id="yTfPNT7VYN94s2qLSQWw-59" value="" style="edgeStyle=orthogonalEdgeStyle;rounded=0;orthogonalLoop=1;jettySize=auto;html=1;entryX=0;entryY=0.5;entryDx=0;entryDy=0;endArrow=none;endFill=0;" parent="1" source="yTfPNT7VYN94s2qLSQWw-60" target="yTfPNT7VYN94s2qLSQWw-58" edge="1">
          <mxGeometry relative="1" as="geometry">
            <mxPoint x="-590" y="-177" as="targetPoint" />
          </mxGeometry>
        </mxCell>
        <mxCell id="yTfPNT7VYN94s2qLSQWw-60" value="id_aluno FK" style="ellipse;whiteSpace=wrap;html=1;align=center;" parent="1" vertex="1">
          <mxGeometry x="-770" y="-197" width="100" height="40" as="geometry" />
        </mxCell>
        <mxCell id="yTfPNT7VYN94s2qLSQWw-61" value="" style="edgeStyle=orthogonalEdgeStyle;rounded=0;orthogonalLoop=1;jettySize=auto;html=1;entryX=0;entryY=0.5;entryDx=0;entryDy=0;endArrow=none;endFill=0;" parent="1" source="yTfPNT7VYN94s2qLSQWw-62" target="yTfPNT7VYN94s2qLSQWw-58" edge="1">
          <mxGeometry relative="1" as="geometry">
            <mxPoint x="-590" y="-127" as="targetPoint" />
          </mxGeometry>
        </mxCell>
        <mxCell id="yTfPNT7VYN94s2qLSQWw-62" value="metodo_pagamento" style="ellipse;whiteSpace=wrap;html=1;align=center;" parent="1" vertex="1">
          <mxGeometry x="-770" y="-147" width="100" height="40" as="geometry" />
        </mxCell>
        <mxCell id="yTfPNT7VYN94s2qLSQWw-63" value="" style="edgeStyle=orthogonalEdgeStyle;rounded=0;orthogonalLoop=1;jettySize=auto;html=1;entryX=0;entryY=0.5;entryDx=0;entryDy=0;endArrow=none;endFill=0;" parent="1" source="yTfPNT7VYN94s2qLSQWw-64" target="yTfPNT7VYN94s2qLSQWw-58" edge="1">
          <mxGeometry relative="1" as="geometry">
            <mxPoint x="-590" y="-77" as="targetPoint" />
          </mxGeometry>
        </mxCell>
        <mxCell id="yTfPNT7VYN94s2qLSQWw-64" value="valor a receber" style="ellipse;whiteSpace=wrap;html=1;align=center;" parent="1" vertex="1">
          <mxGeometry x="-770" y="-97" width="100" height="40" as="geometry" />
        </mxCell>
        <mxCell id="yTfPNT7VYN94s2qLSQWw-65" value="" style="edgeStyle=orthogonalEdgeStyle;rounded=0;orthogonalLoop=1;jettySize=auto;html=1;entryX=0;entryY=0.5;entryDx=0;entryDy=0;endArrow=none;endFill=0;" parent="1" source="yTfPNT7VYN94s2qLSQWw-66" target="yTfPNT7VYN94s2qLSQWw-58" edge="1">
          <mxGeometry relative="1" as="geometry">
            <mxPoint x="-590" y="-27" as="targetPoint" />
          </mxGeometry>
        </mxCell>
        <mxCell id="yTfPNT7VYN94s2qLSQWw-66" value="total pago" style="ellipse;whiteSpace=wrap;html=1;align=center;" parent="1" vertex="1">
          <mxGeometry x="-770" y="-47" width="100" height="40" as="geometry" />
        </mxCell>
        <mxCell id="yTfPNT7VYN94s2qLSQWw-81" value="" style="edgeStyle=orthogonalEdgeStyle;rounded=0;orthogonalLoop=1;jettySize=auto;html=1;entryX=0;entryY=0.5;entryDx=0;entryDy=0;endArrow=none;endFill=0;" parent="1" source="yTfPNT7VYN94s2qLSQWw-80" target="yTfPNT7VYN94s2qLSQWw-58" edge="1">
          <mxGeometry relative="1" as="geometry">
            <mxPoint x="-590" y="-220" as="targetPoint" />
          </mxGeometry>
        </mxCell>
        <mxCell id="yTfPNT7VYN94s2qLSQWw-80" value="Id_transaÃ§ao PK" style="ellipse;whiteSpace=wrap;html=1;align=center;" parent="1" vertex="1">
          <mxGeometry x="-770" y="-240" width="100" height="40" as="geometry" />
        </mxCell>
        <mxCell id="yTfPNT7VYN94s2qLSQWw-163" value="" style="edgeStyle=orthogonalEdgeStyle;rounded=0;orthogonalLoop=1;jettySize=auto;html=1;entryX=0;entryY=0.5;entryDx=0;entryDy=0;" parent="1" source="yTfPNT7VYN94s2qLSQWw-104" target="yTfPNT7VYN94s2qLSQWw-162" edge="1">
          <mxGeometry relative="1" as="geometry">
            <mxPoint x="-350" y="180" as="targetPoint" />
          </mxGeometry>
        </mxCell>
        <mxCell id="V8OOBGYu3xMJqI5clzTw-11" value="(n,n)" style="edgeLabel;html=1;align=center;verticalAlign=middle;resizable=0;points=[];" parent="yTfPNT7VYN94s2qLSQWw-163" vertex="1" connectable="0">
          <mxGeometry x="-0.7444" relative="1" as="geometry">
            <mxPoint as="offset" />
          </mxGeometry>
        </mxCell>
        <mxCell id="yTfPNT7VYN94s2qLSQWw-104" value="contas a pagar" style="whiteSpace=wrap;html=1;align=center;" parent="1" vertex="1">
          <mxGeometry x="-530" y="160" width="100" height="40" as="geometry" />
        </mxCell>
        <mxCell id="yTfPNT7VYN94s2qLSQWw-105" value="" style="edgeStyle=orthogonalEdgeStyle;rounded=0;orthogonalLoop=1;jettySize=auto;html=1;entryX=0;entryY=0.5;entryDx=0;entryDy=0;endArrow=none;endFill=0;startArrow=none;startFill=0;" parent="1" source="yTfPNT7VYN94s2qLSQWw-106" target="yTfPNT7VYN94s2qLSQWw-104" edge="1">
          <mxGeometry relative="1" as="geometry">
            <mxPoint x="-570" y="153" as="targetPoint" />
          </mxGeometry>
        </mxCell>
        <mxCell id="yTfPNT7VYN94s2qLSQWw-106" value="id_colaborador" style="ellipse;whiteSpace=wrap;html=1;align=center;" parent="1" vertex="1">
          <mxGeometry x="-750" y="138" width="100" height="40" as="geometry" />
        </mxCell>
        <mxCell id="yTfPNT7VYN94s2qLSQWw-107" value="" style="edgeStyle=orthogonalEdgeStyle;rounded=0;orthogonalLoop=1;jettySize=auto;html=1;entryX=0;entryY=0.5;entryDx=0;entryDy=0;endArrow=none;endFill=0;startArrow=none;startFill=0;" parent="1" source="yTfPNT7VYN94s2qLSQWw-108" target="yTfPNT7VYN94s2qLSQWw-104" edge="1">
          <mxGeometry relative="1" as="geometry">
            <mxPoint x="-570" y="203" as="targetPoint" />
          </mxGeometry>
        </mxCell>
        <mxCell id="yTfPNT7VYN94s2qLSQWw-108" value="metodo_pagamento" style="ellipse;whiteSpace=wrap;html=1;align=center;" parent="1" vertex="1">
          <mxGeometry x="-750" y="185" width="100" height="40" as="geometry" />
        </mxCell>
        <mxCell id="yTfPNT7VYN94s2qLSQWw-109" value="" style="edgeStyle=orthogonalEdgeStyle;rounded=0;orthogonalLoop=1;jettySize=auto;html=1;entryX=0;entryY=0.5;entryDx=0;entryDy=0;endArrow=none;endFill=0;startArrow=none;startFill=0;" parent="1" source="yTfPNT7VYN94s2qLSQWw-110" target="yTfPNT7VYN94s2qLSQWw-104" edge="1">
          <mxGeometry relative="1" as="geometry">
            <mxPoint x="-570" y="253" as="targetPoint" />
          </mxGeometry>
        </mxCell>
        <mxCell id="yTfPNT7VYN94s2qLSQWw-110" value="valor a pagar" style="ellipse;whiteSpace=wrap;html=1;align=center;" parent="1" vertex="1">
          <mxGeometry x="-750" y="233" width="100" height="40" as="geometry" />
        </mxCell>
        <mxCell id="yTfPNT7VYN94s2qLSQWw-113" value="" style="edgeStyle=orthogonalEdgeStyle;rounded=0;orthogonalLoop=1;jettySize=auto;html=1;entryX=0;entryY=0.5;entryDx=0;entryDy=0;endArrow=none;endFill=0;startArrow=none;startFill=0;" parent="1" source="yTfPNT7VYN94s2qLSQWw-114" target="yTfPNT7VYN94s2qLSQWw-104" edge="1">
          <mxGeometry relative="1" as="geometry">
            <mxPoint x="-570" y="110" as="targetPoint" />
          </mxGeometry>
        </mxCell>
        <mxCell id="yTfPNT7VYN94s2qLSQWw-114" value="Id_transaÃ§ao PK" style="ellipse;whiteSpace=wrap;html=1;align=center;" parent="1" vertex="1">
          <mxGeometry x="-750" y="90" width="100" height="40" as="geometry" />
        </mxCell>
        <mxCell id="yTfPNT7VYN94s2qLSQWw-115" value="comercial" style="whiteSpace=wrap;html=1;align=center;" parent="1" vertex="1">
          <mxGeometry x="-480" y="-930" width="100" height="40" as="geometry" />
        </mxCell>
        <mxCell id="yTfPNT7VYN94s2qLSQWw-116" value="" style="edgeStyle=orthogonalEdgeStyle;rounded=0;orthogonalLoop=1;jettySize=auto;html=1;entryX=0;entryY=0.5;entryDx=0;entryDy=0;endArrow=none;endFill=0;" parent="1" source="yTfPNT7VYN94s2qLSQWw-117" target="yTfPNT7VYN94s2qLSQWw-115" edge="1">
          <mxGeometry relative="1" as="geometry">
            <mxPoint x="-590" y="-940" as="targetPoint" />
            <Array as="points">
              <mxPoint x="-600" y="-940" />
              <mxPoint x="-600" y="-910" />
            </Array>
          </mxGeometry>
        </mxCell>
        <mxCell id="yTfPNT7VYN94s2qLSQWw-117" value="id_leads PK" style="ellipse;whiteSpace=wrap;html=1;align=center;" parent="1" vertex="1">
          <mxGeometry x="-770" y="-960" width="100" height="40" as="geometry" />
        </mxCell>
        <mxCell id="yTfPNT7VYN94s2qLSQWw-118" value="" style="edgeStyle=orthogonalEdgeStyle;rounded=0;orthogonalLoop=1;jettySize=auto;html=1;entryX=0;entryY=0.5;entryDx=0;entryDy=0;endArrow=none;endFill=0;" parent="1" source="yTfPNT7VYN94s2qLSQWw-119" target="yTfPNT7VYN94s2qLSQWw-115" edge="1">
          <mxGeometry relative="1" as="geometry">
            <mxPoint x="-590" y="-890" as="targetPoint" />
            <Array as="points">
              <mxPoint x="-600" y="-890" />
              <mxPoint x="-600" y="-910" />
            </Array>
          </mxGeometry>
        </mxCell>
        <mxCell id="yTfPNT7VYN94s2qLSQWw-119" value="nome" style="ellipse;whiteSpace=wrap;html=1;align=center;" parent="1" vertex="1">
          <mxGeometry x="-770" y="-910" width="100" height="40" as="geometry" />
        </mxCell>
        <mxCell id="yTfPNT7VYN94s2qLSQWw-120" value="" style="edgeStyle=orthogonalEdgeStyle;rounded=0;orthogonalLoop=1;jettySize=auto;html=1;entryX=0;entryY=0.5;entryDx=0;entryDy=0;endArrow=none;endFill=0;" parent="1" source="yTfPNT7VYN94s2qLSQWw-121" target="yTfPNT7VYN94s2qLSQWw-115" edge="1">
          <mxGeometry relative="1" as="geometry">
            <mxPoint x="-590" y="-840" as="targetPoint" />
            <Array as="points">
              <mxPoint x="-600" y="-840" />
              <mxPoint x="-600" y="-910" />
            </Array>
          </mxGeometry>
        </mxCell>
        <mxCell id="yTfPNT7VYN94s2qLSQWw-121" value="curso_interesse" style="ellipse;whiteSpace=wrap;html=1;align=center;" parent="1" vertex="1">
          <mxGeometry x="-770" y="-860" width="100" height="40" as="geometry" />
        </mxCell>
        <mxCell id="yTfPNT7VYN94s2qLSQWw-122" value="" style="edgeStyle=orthogonalEdgeStyle;rounded=0;orthogonalLoop=1;jettySize=auto;html=1;entryX=0;entryY=0.5;entryDx=0;entryDy=0;endArrow=none;endFill=0;" parent="1" source="yTfPNT7VYN94s2qLSQWw-123" target="yTfPNT7VYN94s2qLSQWw-115" edge="1">
          <mxGeometry relative="1" as="geometry">
            <mxPoint x="-590" y="-790" as="targetPoint" />
            <Array as="points">
              <mxPoint x="-600" y="-790" />
              <mxPoint x="-600" y="-910" />
            </Array>
          </mxGeometry>
        </mxCell>
        <mxCell id="yTfPNT7VYN94s2qLSQWw-123" value="vendedor" style="ellipse;whiteSpace=wrap;html=1;align=center;" parent="1" vertex="1">
          <mxGeometry x="-770" y="-810" width="100" height="40" as="geometry" />
        </mxCell>
        <mxCell id="yTfPNT7VYN94s2qLSQWw-124" value="" style="edgeStyle=orthogonalEdgeStyle;rounded=0;orthogonalLoop=1;jettySize=auto;html=1;entryX=0;entryY=0.5;entryDx=0;entryDy=0;endArrow=none;endFill=0;" parent="1" source="yTfPNT7VYN94s2qLSQWw-125" target="yTfPNT7VYN94s2qLSQWw-115" edge="1">
          <mxGeometry relative="1" as="geometry">
            <mxPoint x="-590" y="-740" as="targetPoint" />
            <Array as="points">
              <mxPoint x="-600" y="-740" />
              <mxPoint x="-600" y="-910" />
            </Array>
          </mxGeometry>
        </mxCell>
        <mxCell id="yTfPNT7VYN94s2qLSQWw-125" value="tipo_midia FK" style="ellipse;whiteSpace=wrap;html=1;align=center;" parent="1" vertex="1">
          <mxGeometry x="-770" y="-760" width="100" height="40" as="geometry" />
        </mxCell>
        <mxCell id="yTfPNT7VYN94s2qLSQWw-126" value="" style="edgeStyle=orthogonalEdgeStyle;rounded=0;orthogonalLoop=1;jettySize=auto;html=1;entryX=0;entryY=0.5;entryDx=0;entryDy=0;endArrow=none;endFill=0;" parent="1" source="yTfPNT7VYN94s2qLSQWw-127" target="yTfPNT7VYN94s2qLSQWw-115" edge="1">
          <mxGeometry relative="1" as="geometry">
            <mxPoint x="-590" y="-690" as="targetPoint" />
            <Array as="points">
              <mxPoint x="-600" y="-690" />
              <mxPoint x="-600" y="-910" />
            </Array>
          </mxGeometry>
        </mxCell>
        <mxCell id="yTfPNT7VYN94s2qLSQWw-127" value="convertido" style="ellipse;whiteSpace=wrap;html=1;align=center;" parent="1" vertex="1">
          <mxGeometry x="-770" y="-710" width="100" height="40" as="geometry" />
        </mxCell>
        <mxCell id="yTfPNT7VYN94s2qLSQWw-168" value="" style="edgeStyle=orthogonalEdgeStyle;rounded=0;orthogonalLoop=1;jettySize=auto;html=1;entryX=1;entryY=0.5;entryDx=0;entryDy=0;" parent="1" source="yTfPNT7VYN94s2qLSQWw-128" target="yTfPNT7VYN94s2qLSQWw-167" edge="1">
          <mxGeometry relative="1" as="geometry">
            <mxPoint x="-150" y="-820" as="targetPoint" />
          </mxGeometry>
        </mxCell>
        <mxCell id="V8OOBGYu3xMJqI5clzTw-1" value="(1, n)" style="edgeLabel;html=1;align=center;verticalAlign=middle;resizable=0;points=[];" parent="yTfPNT7VYN94s2qLSQWw-168" vertex="1" connectable="0">
          <mxGeometry x="-0.6178" y="-2" relative="1" as="geometry">
            <mxPoint x="26" y="2" as="offset" />
          </mxGeometry>
        </mxCell>
        <mxCell id="yTfPNT7VYN94s2qLSQWw-128" value="Marketing" style="whiteSpace=wrap;html=1;align=center;" parent="1" vertex="1">
          <mxGeometry x="20" y="-840" width="100" height="40" as="geometry" />
        </mxCell>
        <mxCell id="yTfPNT7VYN94s2qLSQWw-131" value="" style="edgeStyle=orthogonalEdgeStyle;rounded=0;orthogonalLoop=1;jettySize=auto;html=1;entryX=1;entryY=0.5;entryDx=0;entryDy=0;endArrow=none;endFill=0;" parent="1" source="yTfPNT7VYN94s2qLSQWw-132" target="yTfPNT7VYN94s2qLSQWw-128" edge="1">
          <mxGeometry relative="1" as="geometry" />
        </mxCell>
        <mxCell id="yTfPNT7VYN94s2qLSQWw-132" value="tipo_midia" style="ellipse;whiteSpace=wrap;html=1;align=center;flipV=1;" parent="1" vertex="1">
          <mxGeometry x="192" y="-819" width="100" height="40" as="geometry" />
        </mxCell>
        <mxCell id="yTfPNT7VYN94s2qLSQWw-133" value="" style="edgeStyle=orthogonalEdgeStyle;rounded=0;orthogonalLoop=1;jettySize=auto;html=1;entryX=1;entryY=0.5;entryDx=0;entryDy=0;endArrow=none;endFill=0;" parent="1" source="yTfPNT7VYN94s2qLSQWw-134" target="yTfPNT7VYN94s2qLSQWw-128" edge="1">
          <mxGeometry relative="1" as="geometry" />
        </mxCell>
        <mxCell id="yTfPNT7VYN94s2qLSQWw-134" value="id_campanha PK" style="ellipse;whiteSpace=wrap;html=1;align=center;flipV=1;" parent="1" vertex="1">
          <mxGeometry x="192" y="-870" width="100" height="40" as="geometry" />
        </mxCell>
        <mxCell id="yTfPNT7VYN94s2qLSQWw-156" value="" style="edgeStyle=orthogonalEdgeStyle;rounded=0;orthogonalLoop=1;jettySize=auto;html=1;entryX=0.5;entryY=1;entryDx=0;entryDy=0;startArrow=classic;startFill=1;endArrow=none;endFill=0;" parent="1" source="yTfPNT7VYN94s2qLSQWw-145" target="yTfPNT7VYN94s2qLSQWw-115" edge="1">
          <mxGeometry relative="1" as="geometry">
            <Array as="points">
              <mxPoint x="-430" y="-760" />
              <mxPoint x="-430" y="-760" />
            </Array>
          </mxGeometry>
        </mxCell>
        <mxCell id="V8OOBGYu3xMJqI5clzTw-2" value="(1,1)" style="edgeLabel;html=1;align=center;verticalAlign=middle;resizable=0;points=[];" parent="yTfPNT7VYN94s2qLSQWw-156" vertex="1" connectable="0">
          <mxGeometry x="0.513" y="-1" relative="1" as="geometry">
            <mxPoint x="-1" y="-26" as="offset" />
          </mxGeometry>
        </mxCell>
        <mxCell id="yTfPNT7VYN94s2qLSQWw-145" value="gera" style="shape=rhombus;perimeter=rhombusPerimeter;whiteSpace=wrap;html=1;align=center;" parent="1" vertex="1">
          <mxGeometry x="-490" y="-726.5" width="120" height="60" as="geometry" />
        </mxCell>
        <mxCell id="yTfPNT7VYN94s2qLSQWw-153" value="" style="edgeStyle=orthogonalEdgeStyle;rounded=0;orthogonalLoop=1;jettySize=auto;html=1;entryX=0.5;entryY=1;entryDx=0;entryDy=0;startArrow=classic;startFill=1;endArrow=none;endFill=0;" parent="1" source="yTfPNT7VYN94s2qLSQWw-152" target="yTfPNT7VYN94s2qLSQWw-23" edge="1">
          <mxGeometry relative="1" as="geometry">
            <mxPoint x="370" y="-214" as="targetPoint" />
          </mxGeometry>
        </mxCell>
        <mxCell id="V8OOBGYu3xMJqI5clzTw-10" value="(1,n)" style="edgeLabel;html=1;align=center;verticalAlign=middle;resizable=0;points=[];" parent="yTfPNT7VYN94s2qLSQWw-153" vertex="1" connectable="0">
          <mxGeometry x="0.5781" relative="1" as="geometry">
            <mxPoint as="offset" />
          </mxGeometry>
        </mxCell>
        <mxCell id="yTfPNT7VYN94s2qLSQWw-171" value="" style="edgeStyle=orthogonalEdgeStyle;rounded=0;orthogonalLoop=1;jettySize=auto;html=1;entryX=1;entryY=0.5;entryDx=0;entryDy=0;" parent="1" source="yTfPNT7VYN94s2qLSQWw-152" target="yTfPNT7VYN94s2qLSQWw-49" edge="1">
          <mxGeometry relative="1" as="geometry">
            <mxPoint x="230" y="-79" as="targetPoint" />
          </mxGeometry>
        </mxCell>
        <mxCell id="yTfPNT7VYN94s2qLSQWw-152" value="pertence" style="shape=rhombus;perimeter=rhombusPerimeter;whiteSpace=wrap;html=1;align=center;" parent="1" vertex="1">
          <mxGeometry x="310" y="-157" width="120" height="60" as="geometry" />
        </mxCell>
        <mxCell id="yTfPNT7VYN94s2qLSQWw-161" value="" style="edgeStyle=orthogonalEdgeStyle;rounded=0;orthogonalLoop=1;jettySize=auto;html=1;entryX=0.5;entryY=0;entryDx=0;entryDy=0;" parent="1" source="yTfPNT7VYN94s2qLSQWw-155" target="yTfPNT7VYN94s2qLSQWw-58" edge="1">
          <mxGeometry relative="1" as="geometry">
            <mxPoint x="-500" y="-209" as="targetPoint" />
          </mxGeometry>
        </mxCell>
        <mxCell id="yTfPNT7VYN94s2qLSQWw-155" value="paga" style="shape=rhombus;perimeter=rhombusPerimeter;whiteSpace=wrap;html=1;align=center;" parent="1" vertex="1">
          <mxGeometry x="-490" y="-327" width="120" height="60" as="geometry" />
        </mxCell>
        <mxCell id="yTfPNT7VYN94s2qLSQWw-158" value="" style="endArrow=classic;html=1;rounded=0;entryX=0.5;entryY=0;entryDx=0;entryDy=0;exitX=0.5;exitY=1;exitDx=0;exitDy=0;endFill=1;" parent="1" source="yTfPNT7VYN94s2qLSQWw-145" target="2qrkcXuvCPRG3PDcTXC0-2" edge="1">
          <mxGeometry relative="1" as="geometry">
            <mxPoint x="-840" y="-680" as="sourcePoint" />
            <mxPoint x="-680" y="-680" as="targetPoint" />
          </mxGeometry>
        </mxCell>
        <mxCell id="yTfPNT7VYN94s2qLSQWw-172" value="" style="edgeStyle=orthogonalEdgeStyle;rounded=0;orthogonalLoop=1;jettySize=auto;html=1;entryX=0.5;entryY=1;entryDx=0;entryDy=0;" parent="1" source="yTfPNT7VYN94s2qLSQWw-162" target="yTfPNT7VYN94s2qLSQWw-49" edge="1">
          <mxGeometry relative="1" as="geometry">
            <mxPoint x="180" y="180" as="targetPoint" />
          </mxGeometry>
        </mxCell>
        <mxCell id="yTfPNT7VYN94s2qLSQWw-162" value="paga" style="shape=rhombus;perimeter=rhombusPerimeter;whiteSpace=wrap;html=1;align=center;" parent="1" vertex="1">
          <mxGeometry x="-250" y="150" width="120" height="60" as="geometry" />
        </mxCell>
        <mxCell id="yTfPNT7VYN94s2qLSQWw-169" value="" style="edgeStyle=orthogonalEdgeStyle;rounded=0;orthogonalLoop=1;jettySize=auto;html=1;entryX=1;entryY=0.5;entryDx=0;entryDy=0;" parent="1" source="yTfPNT7VYN94s2qLSQWw-167" target="yTfPNT7VYN94s2qLSQWw-115" edge="1">
          <mxGeometry relative="1" as="geometry">
            <mxPoint x="-400" y="-815" as="targetPoint" />
          </mxGeometry>
        </mxCell>
        <mxCell id="yTfPNT7VYN94s2qLSQWw-167" value="gera" style="shape=rhombus;perimeter=rhombusPerimeter;whiteSpace=wrap;html=1;align=center;" parent="1" vertex="1">
          <mxGeometry x="-270" y="-940" width="120" height="60" as="geometry" />
        </mxCell>
        <mxCell id="yTfPNT7VYN94s2qLSQWw-176" value="" style="edgeStyle=orthogonalEdgeStyle;rounded=0;orthogonalLoop=1;jettySize=auto;html=1;entryX=0.5;entryY=1;entryDx=0;entryDy=0;" parent="1" source="yTfPNT7VYN94s2qLSQWw-174" target="2qrkcXuvCPRG3PDcTXC0-73" edge="1">
          <mxGeometry relative="1" as="geometry" />
        </mxCell>
        <mxCell id="V8OOBGYu3xMJqI5clzTw-7" value="(n,n)" style="edgeLabel;html=1;align=center;verticalAlign=middle;resizable=0;points=[];" parent="yTfPNT7VYN94s2qLSQWw-176" vertex="1" connectable="0">
          <mxGeometry x="0.6644" relative="1" as="geometry">
            <mxPoint as="offset" />
          </mxGeometry>
        </mxCell>
        <mxCell id="yTfPNT7VYN94s2qLSQWw-174" value="pertence" style="shape=rhombus;perimeter=rhombusPerimeter;whiteSpace=wrap;html=1;align=center;" parent="1" vertex="1">
          <mxGeometry x="-14" y="-318" width="120" height="60" as="geometry" />
        </mxCell>
        <mxCell id="V8OOBGYu3xMJqI5clzTw-13" value="" style="edgeStyle=orthogonalEdgeStyle;rounded=0;orthogonalLoop=1;jettySize=auto;html=1;startArrow=none;startFill=0;endArrow=none;endFill=0;entryX=0;entryY=0.5;entryDx=0;entryDy=0;" parent="1" source="V8OOBGYu3xMJqI5clzTw-12" target="yTfPNT7VYN94s2qLSQWw-104" edge="1">
          <mxGeometry relative="1" as="geometry">
            <mxPoint x="-570" y="300" as="targetPoint" />
          </mxGeometry>
        </mxCell>
        <mxCell id="V8OOBGYu3xMJqI5clzTw-12" value="dados bancÃ¡rios FK" style="ellipse;whiteSpace=wrap;html=1;align=center;" parent="1" vertex="1">
          <mxGeometry x="-750" y="280" width="100" height="40" as="geometry" />
        </mxCell>
        <mxCell id="-qrfRXeHqhPlfkhkdKej-1" value="cpf" style="ellipse;whiteSpace=wrap;html=1;align=center;" vertex="1" parent="1">
          <mxGeometry x="-780" y="-531" width="100" height="40" as="geometry" />
        </mxCell>
        <mxCell id="-qrfRXeHqhPlfkhkdKej-2" value="" style="edgeStyle=orthogonalEdgeStyle;rounded=0;orthogonalLoop=1;jettySize=auto;html=1;entryX=0;entryY=0.5;entryDx=0;entryDy=0;endArrow=none;endFill=0;exitX=1;exitY=0.5;exitDx=0;exitDy=0;" edge="1" parent="1" source="-qrfRXeHqhPlfkhkdKej-1" target="2qrkcXuvCPRG3PDcTXC0-2">
          <mxGeometry relative="1" as="geometry">
            <mxPoint x="-440" y="-544.75" as="targetPoint" />
            <Array as="points">
              <mxPoint x="-600" y="-511" />
              <mxPoint x="-600" y="-482" />
            </Array>
            <mxPoint x="-640" y="-522.25" as="sourcePoint" />
          </mxGeometry>
        </mxCell>
      </root>
    </mxGraphModel>
  </diagram>
</mxfile>
